PERFORMER "奕迅"
TITLE "J了吧"
FILE "CDImage.ape" WAVE
  TRACK 01 AUDIO
    TITLE "味"
    PERFORMER "奕迅"
    REM GENRE Pop
    REM DATE 2007
    REM COMMENT ukoo音乐 ╄SU君子╄
    INDEX 01 00:00:00
  TRACK 02 AUDIO
    TITLE "淘汰"
    PERFORMER "奕迅"
    REM GENRE Pop
    REM DATE 2007
    REM COMMENT ukoo音乐 ╄SU君子╄
    INDEX 01 04:23:26
  TRACK 03 AUDIO
    TITLE "快纺猩"
    PERFORMER "奕迅"
    REM GENRE Pop
    REM DATE 2007
    REM COMMENT ukoo音乐 ╄SU君子╄
    INDEX 01 09:08:26
  TRACK 04 AUDIO
    TITLE "t玫瑰"
    PERFORMER "奕迅"
    REM GENRE Pop
    REM DATE 2007
    REM COMMENT ukoo音乐 ╄SU君子╄
    INDEX 01 12:30:63
  TRACK 05 AUDIO
    TITLE "月黑L高"
    PERFORMER "奕迅"
    REM GENRE Pop
    REM DATE 2007
    REM COMMENT ukoo音乐 ╄SU君子╄
    INDEX 01 16:30:61
  TRACK 06 AUDIO
    TITLE "矍檗D移"
    PERFORMER "奕迅"
    REM GENRE Pop
    REM DATE 2007
    REM COMMENT ukoo音乐 ╄SU君子╄
    INDEX 01 21:07:12
  TRACK 07 AUDIO
    TITLE "好久不"
    PERFORMER "奕迅"
    REM GENRE Pop
    REM DATE 2007
    REM COMMENT ukoo音乐 ╄SU君子╄
    INDEX 01 25:27:11
  TRACK 08 AUDIO
    TITLE "凼且槐"
    PERFORMER "奕迅"
    REM GENRE Pop
    REM DATE 2007
    REM COMMENT ukoo音乐 ╄SU君子╄
    INDEX 01 29:37:48
  TRACK 09 AUDIO
    TITLE "第一雅皮士"
    PERFORMER "奕迅"
    REM GENRE Pop
    REM DATE 2007
    REM COMMENT ukoo音乐 ╄SU君子╄
    INDEX 01 34:01:49
  TRACK 10 AUDIO
    TITLE "白色球鞋"
    PERFORMER "奕迅"
    REM GENRE Pop
    REM DATE 2007
    REM COMMENT ukoo音乐 ╄SU君子╄
    INDEX 01 37:26:26
